<svg xmlns="http://www.w3.org/2000/svg" xmlns:xlink="http://www.w3.org/1999/xlink" width="300" zoomAndPan="magnify" viewBox="0 0 224.87999 225" height="300" preserveAspectRatio="xMidYMid meet" version="1.0"><defs><clipPath id="ef1efc50f5"><path d="M 29.179688 143.90625 L 32.175781 143.90625 L 32.175781 149.15625 L 29.179688 149.15625 Z M 29.179688 143.90625 " clip-rule="nonzero"/></clipPath><clipPath id="9af8a89694"><path d="M 0 15.800781 L 224.761719 15.800781 L 224.761719 209.199219 L 0 209.199219 Z M 0 15.800781 " clip-rule="nonzero"/></clipPath></defs><g clip-path="url(#ef1efc50f5)"><path fill="#000000" d="M 32.15625 146.066406 C 32.140625 146.035156 32.105469 146.011719 32.070312 146.011719 L 30.984375 146.011719 L 31.175781 144.035156 C 31.179688 143.984375 31.152344 143.941406 31.109375 143.925781 C 31.066406 143.90625 31.015625 143.925781 30.992188 143.964844 L 29.203125 146.898438 C 29.179688 146.929688 29.179688 146.972656 29.199219 147.003906 C 29.214844 147.039062 29.25 147.058594 29.285156 147.058594 L 30.367188 147.058594 L 30.179688 149.039062 C 30.175781 149.085938 30.203125 149.132812 30.246094 149.148438 C 30.257812 149.152344 30.269531 149.15625 30.28125 149.15625 C 30.3125 149.15625 30.34375 149.136719 30.363281 149.105469 L 32.152344 146.175781 C 32.171875 146.140625 32.175781 146.101562 32.15625 146.066406 Z M 32.15625 146.066406 " fill-opacity="1" fill-rule="nonzero"/></g><g clip-path="url(#9af8a89694)"><path fill="#ffde59" d="M 220.996094 104.457031 L 192.886719 90.402344 C 190.910156 89.414062 188.574219 89.414062 186.597656 90.402344 L 182.714844 92.34375 L 182.714844 33.441406 C 182.714844 23.753906 174.832031 15.871094 165.144531 15.871094 L 147.578125 15.871094 C 143.695312 15.871094 140.550781 19.019531 140.550781 22.898438 C 140.550781 26.78125 143.695312 29.925781 147.578125 29.925781 L 165.144531 29.925781 C 167.085938 29.925781 168.660156 31.503906 168.660156 33.441406 L 168.660156 99.371094 L 158.488281 104.457031 C 156.109375 105.648438 154.605469 108.082031 154.605469 110.742188 L 154.605469 138.851562 L 17.570312 138.851562 C 15.628906 138.851562 14.054688 137.277344 14.054688 135.339844 L 14.054688 33.441406 C 14.054688 31.503906 15.628906 29.925781 17.570312 29.925781 L 119.46875 29.925781 C 123.347656 29.925781 126.496094 26.78125 126.496094 22.898438 C 126.496094 19.019531 123.347656 15.871094 119.46875 15.871094 L 17.570312 15.871094 C 7.882812 15.871094 0 23.753906 0 33.441406 L 0 135.339844 C 0 145.027344 7.882812 152.90625 17.570312 152.90625 L 70.273438 152.90625 L 70.273438 166.964844 L 59.734375 166.964844 C 50.046875 166.964844 42.164062 174.84375 42.164062 184.53125 L 42.164062 191.558594 C 42.164062 201.246094 50.046875 209.128906 59.734375 209.128906 L 122.980469 209.128906 C 132.667969 209.128906 140.550781 201.246094 140.550781 191.558594 L 140.550781 184.53125 C 140.550781 174.84375 132.667969 166.964844 122.980469 166.964844 L 112.441406 166.964844 L 112.441406 152.90625 L 154.605469 152.90625 C 154.605469 155.121094 155.648438 157.203125 157.414062 158.53125 L 168.660156 166.964844 L 168.660156 191.558594 C 168.660156 201.246094 176.542969 209.128906 186.230469 209.128906 L 193.257812 209.128906 C 202.941406 209.128906 210.824219 201.246094 210.824219 191.558594 L 210.824219 166.964844 L 222.070312 158.53125 C 223.835938 157.203125 224.878906 155.121094 224.878906 152.90625 L 224.878906 110.742188 C 224.878906 108.082031 223.378906 105.648438 220.996094 104.457031 Z M 126.496094 184.53125 L 126.496094 191.558594 C 126.496094 193.496094 124.921875 195.074219 122.980469 195.074219 L 59.734375 195.074219 C 57.796875 195.074219 56.21875 193.496094 56.21875 191.558594 L 56.21875 184.53125 C 56.21875 182.59375 57.796875 181.019531 59.734375 181.019531 L 122.980469 181.019531 C 124.921875 181.019531 126.496094 182.59375 126.496094 184.53125 Z M 98.386719 166.964844 L 84.328125 166.964844 L 84.328125 152.90625 L 98.386719 152.90625 Z M 210.824219 149.394531 L 199.582031 157.828125 C 197.8125 159.15625 196.769531 161.238281 196.769531 163.449219 L 196.769531 191.558594 C 196.769531 193.496094 195.195312 195.074219 193.257812 195.074219 L 186.230469 195.074219 C 184.289062 195.074219 182.714844 193.496094 182.714844 191.558594 L 182.714844 163.449219 C 182.714844 161.238281 181.671875 159.15625 179.90625 157.828125 L 168.660156 149.394531 L 168.660156 115.085938 L 182.714844 108.058594 L 182.714844 128.3125 C 182.714844 132.191406 185.863281 135.339844 189.742188 135.339844 C 193.625 135.339844 196.769531 132.191406 196.769531 128.3125 L 196.769531 108.058594 L 210.824219 115.085938 Z M 210.824219 149.394531 " fill-opacity="1" fill-rule="nonzero"/></g><path fill="#ffde59" d="M 101.898438 117.769531 C 101.898438 118.230469 101.855469 118.6875 101.765625 119.140625 C 101.671875 119.59375 101.539062 120.035156 101.363281 120.460938 C 101.1875 120.886719 100.972656 121.292969 100.714844 121.675781 C 100.457031 122.058594 100.167969 122.414062 99.839844 122.738281 C 99.515625 123.066406 99.160156 123.355469 98.777344 123.613281 C 98.390625 123.871094 97.988281 124.085938 97.558594 124.261719 C 97.132812 124.441406 96.695312 124.574219 96.242188 124.664062 C 95.789062 124.753906 95.332031 124.796875 94.871094 124.796875 C 94.410156 124.796875 93.953125 124.753906 93.5 124.664062 C 93.046875 124.574219 92.609375 124.441406 92.183594 124.261719 C 91.753906 124.085938 91.351562 123.871094 90.96875 123.613281 C 90.582031 123.355469 90.226562 123.066406 89.902344 122.738281 C 89.574219 122.414062 89.285156 122.058594 89.027344 121.675781 C 88.773438 121.292969 88.554688 120.886719 88.378906 120.460938 C 88.203125 120.035156 88.070312 119.59375 87.980469 119.140625 C 87.890625 118.6875 87.84375 118.230469 87.84375 117.769531 C 87.84375 117.308594 87.890625 116.851562 87.980469 116.398438 C 88.070312 115.945312 88.203125 115.507812 88.378906 115.082031 C 88.554688 114.65625 88.773438 114.25 89.027344 113.867188 C 89.285156 113.484375 89.574219 113.128906 89.902344 112.800781 C 90.226562 112.476562 90.582031 112.183594 90.96875 111.925781 C 91.351562 111.671875 91.753906 111.453125 92.183594 111.277344 C 92.609375 111.101562 93.046875 110.96875 93.5 110.878906 C 93.953125 110.789062 94.410156 110.742188 94.871094 110.742188 C 95.332031 110.742188 95.789062 110.789062 96.242188 110.878906 C 96.695312 110.96875 97.132812 111.101562 97.558594 111.277344 C 97.988281 111.453125 98.390625 111.671875 98.777344 111.925781 C 99.160156 112.183594 99.515625 112.476562 99.839844 112.800781 C 100.167969 113.128906 100.457031 113.484375 100.714844 113.867188 C 100.972656 114.25 101.1875 114.65625 101.363281 115.082031 C 101.539062 115.507812 101.671875 115.945312 101.765625 116.398438 C 101.855469 116.851562 101.898438 117.308594 101.898438 117.769531 Z M 101.898438 117.769531 " fill-opacity="1" fill-rule="nonzero"/></svg>