<svg xmlns="http://www.w3.org/2000/svg" xmlns:xlink="http://www.w3.org/1999/xlink" width="300" zoomAndPan="magnify" viewBox="0 0 224.87999 225" height="300" preserveAspectRatio="xMidYMid meet" version="1.0"><defs><clipPath id="2a33fe4357"><path d="M 52 164.402344 L 54.980469 164.402344 L 54.980469 167 L 52 167 Z M 52 164.402344 " clip-rule="nonzero"/></clipPath><clipPath id="ac05efb2be"><path d="M 53 164.402344 L 54.980469 164.402344 L 54.980469 166 L 53 166 Z M 53 164.402344 " clip-rule="nonzero"/></clipPath><clipPath id="fd81b490b5"><path d="M 51.984375 165 L 54 165 L 54 167.398438 L 51.984375 167.398438 Z M 51.984375 165 " clip-rule="nonzero"/></clipPath><clipPath id="a999a4121e"><path d="M 52 167 L 53 167 L 53 167.398438 L 52 167.398438 Z M 52 167 " clip-rule="nonzero"/></clipPath><clipPath id="80bc831304"><path d="M 53 166 L 54.980469 166 L 54.980469 167.398438 L 53 167.398438 Z M 53 166 " clip-rule="nonzero"/></clipPath><clipPath id="ec9e15ffc2"><path d="M 52 164.402344 L 53 164.402344 L 53 166 L 52 166 Z M 52 164.402344 " clip-rule="nonzero"/></clipPath><clipPath id="efb056fcba"><path d="M 0 0.0585938 L 218 0.0585938 L 218 218 L 0 218 Z M 0 0.0585938 " clip-rule="nonzero"/></clipPath></defs><g clip-path="url(#2a33fe4357)"><path fill="#000000" d="M 54.167969 166.402344 L 53.792969 166.402344 C 53.753906 166.402344 53.730469 166.378906 53.730469 166.339844 L 53.730469 166.109375 C 53.707031 166.097656 53.683594 166.089844 53.660156 166.078125 L 53.496094 166.242188 C 53.464844 166.269531 53.4375 166.269531 53.40625 166.242188 L 53.144531 165.976562 C 53.113281 165.945312 53.113281 165.917969 53.144531 165.886719 L 53.304688 165.722656 C 53.292969 165.699219 53.285156 165.675781 53.277344 165.652344 L 53.046875 165.652344 C 53.003906 165.652344 52.984375 165.628906 52.984375 165.589844 L 52.984375 165.214844 C 52.984375 165.171875 53.003906 165.152344 53.046875 165.152344 L 53.277344 165.152344 C 53.285156 165.125 53.292969 165.101562 53.304688 165.078125 L 53.144531 164.914062 C 53.113281 164.886719 53.113281 164.855469 53.144531 164.828125 L 53.40625 164.5625 C 53.4375 164.53125 53.464844 164.53125 53.496094 164.5625 L 53.660156 164.726562 C 53.683594 164.714844 53.707031 164.703125 53.730469 164.695312 L 53.730469 164.464844 C 53.730469 164.421875 53.753906 164.402344 53.792969 164.402344 L 54.167969 164.402344 C 54.210938 164.402344 54.230469 164.421875 54.230469 164.464844 L 54.230469 164.695312 C 54.257812 164.703125 54.28125 164.714844 54.304688 164.726562 L 54.46875 164.5625 C 54.496094 164.53125 54.527344 164.53125 54.554688 164.5625 L 54.820312 164.828125 C 54.851562 164.855469 54.851562 164.886719 54.820312 164.914062 L 54.660156 165.078125 C 54.667969 165.101562 54.679688 165.125 54.6875 165.152344 L 54.917969 165.152344 C 54.960938 165.152344 54.980469 165.171875 54.980469 165.214844 L 54.980469 165.589844 C 54.980469 165.628906 54.960938 165.652344 54.917969 165.652344 L 54.6875 165.652344 C 54.679688 165.675781 54.667969 165.699219 54.660156 165.722656 L 54.820312 165.886719 C 54.851562 165.917969 54.851562 165.945312 54.820312 165.976562 L 54.554688 166.242188 C 54.527344 166.269531 54.496094 166.269531 54.46875 166.242188 L 54.304688 166.078125 C 54.28125 166.089844 54.257812 166.097656 54.230469 166.109375 L 54.230469 166.339844 C 54.230469 166.378906 54.210938 166.402344 54.167969 166.402344 Z M 53.855469 166.277344 L 54.105469 166.277344 L 54.105469 166.0625 C 54.105469 166.03125 54.121094 166.011719 54.152344 166 C 54.199219 165.988281 54.242188 165.96875 54.285156 165.945312 C 54.3125 165.929688 54.339844 165.933594 54.359375 165.957031 L 54.511719 166.109375 L 54.6875 165.929688 L 54.539062 165.78125 C 54.515625 165.757812 54.511719 165.734375 54.527344 165.707031 C 54.550781 165.664062 54.570312 165.617188 54.582031 165.570312 C 54.589844 165.542969 54.613281 165.527344 54.644531 165.527344 L 54.855469 165.527344 L 54.855469 165.277344 L 54.644531 165.277344 C 54.609375 165.277344 54.589844 165.261719 54.582031 165.230469 C 54.570312 165.183594 54.550781 165.140625 54.527344 165.097656 C 54.511719 165.070312 54.515625 165.042969 54.539062 165.023438 L 54.6875 164.871094 L 54.511719 164.695312 L 54.359375 164.84375 C 54.339844 164.867188 54.3125 164.871094 54.285156 164.855469 C 54.242188 164.832031 54.199219 164.8125 54.152344 164.800781 C 54.121094 164.792969 54.105469 164.773438 54.105469 164.742188 L 54.105469 164.527344 L 53.855469 164.527344 L 53.855469 164.742188 C 53.855469 164.773438 53.84375 164.792969 53.8125 164.800781 C 53.765625 164.8125 53.71875 164.832031 53.679688 164.855469 C 53.648438 164.871094 53.625 164.867188 53.601562 164.84375 L 53.453125 164.695312 L 53.273438 164.871094 L 53.425781 165.023438 C 53.449219 165.042969 53.453125 165.070312 53.4375 165.097656 C 53.414062 165.140625 53.394531 165.183594 53.382812 165.230469 C 53.371094 165.261719 53.351562 165.277344 53.320312 165.277344 L 53.109375 165.277344 L 53.109375 165.527344 L 53.320312 165.527344 C 53.351562 165.527344 53.371094 165.542969 53.382812 165.570312 C 53.394531 165.617188 53.414062 165.664062 53.4375 165.707031 C 53.453125 165.734375 53.449219 165.757812 53.425781 165.78125 L 53.273438 165.933594 L 53.453125 166.109375 L 53.601562 165.957031 C 53.625 165.933594 53.652344 165.929688 53.679688 165.945312 C 53.71875 165.96875 53.765625 165.988281 53.8125 166 C 53.84375 166.011719 53.859375 166.03125 53.859375 166.0625 Z M 53.855469 166.277344 " fill-opacity="1" fill-rule="nonzero"/></g><g clip-path="url(#ac05efb2be)"><path fill="#000000" d="M 53.980469 165.839844 C 53.859375 165.839844 53.757812 165.796875 53.671875 165.710938 C 53.585938 165.625 53.542969 165.523438 53.542969 165.402344 C 53.542969 165.28125 53.585938 165.175781 53.671875 165.09375 C 53.757812 165.007812 53.859375 164.964844 53.980469 164.964844 C 54.101562 164.964844 54.207031 165.007812 54.292969 165.09375 C 54.375 165.175781 54.417969 165.28125 54.417969 165.402344 C 54.417969 165.523438 54.375 165.625 54.292969 165.710938 C 54.207031 165.796875 54.101562 165.839844 53.980469 165.839844 Z M 53.980469 165.089844 C 53.894531 165.089844 53.820312 165.121094 53.761719 165.179688 C 53.699219 165.242188 53.667969 165.316406 53.667969 165.402344 C 53.667969 165.488281 53.699219 165.5625 53.761719 165.621094 C 53.820312 165.683594 53.894531 165.714844 53.980469 165.714844 C 54.066406 165.714844 54.140625 165.683594 54.203125 165.621094 C 54.265625 165.5625 54.292969 165.488281 54.292969 165.402344 C 54.292969 165.316406 54.265625 165.242188 54.203125 165.179688 C 54.140625 165.121094 54.066406 165.089844 53.980469 165.089844 Z M 53.980469 165.089844 " fill-opacity="1" fill-rule="nonzero"/></g><g clip-path="url(#fd81b490b5)"><path fill="#000000" d="M 53.542969 167.398438 L 52.171875 167.398438 C 52.046875 167.398438 51.984375 167.335938 51.984375 167.210938 L 51.984375 165.839844 C 51.984375 165.714844 52.046875 165.652344 52.171875 165.652344 L 52.859375 165.652344 L 52.859375 165.777344 L 52.171875 165.777344 C 52.128906 165.777344 52.109375 165.796875 52.109375 165.839844 L 52.109375 167.210938 C 52.109375 167.253906 52.128906 167.273438 52.171875 167.273438 L 53.542969 167.273438 C 53.585938 167.273438 53.605469 167.253906 53.605469 167.210938 L 53.605469 166.527344 L 53.730469 166.527344 L 53.730469 167.210938 C 53.730469 167.335938 53.667969 167.398438 53.542969 167.398438 Z M 53.542969 167.398438 " fill-opacity="1" fill-rule="nonzero"/></g><path fill="#000000" d="M 53.109375 166.402344 L 52.609375 166.402344 C 52.566406 166.402344 52.546875 166.378906 52.546875 166.339844 L 52.546875 165.714844 L 52.671875 165.714844 L 52.671875 166.277344 L 53.046875 166.277344 L 53.046875 166.152344 L 53.171875 166.152344 L 53.171875 166.339844 C 53.171875 166.378906 53.148438 166.402344 53.109375 166.402344 Z M 53.109375 166.402344 " fill-opacity="1" fill-rule="nonzero"/><g clip-path="url(#a999a4121e)"><path fill="#000000" d="M 52.234375 167.023438 L 52.359375 167.023438 L 52.359375 167.148438 L 52.234375 167.148438 Z M 52.234375 167.023438 " fill-opacity="1" fill-rule="nonzero"/><path fill="#000000" d="M 52.484375 167.023438 L 52.609375 167.023438 L 52.609375 167.148438 L 52.484375 167.148438 Z M 52.484375 167.023438 " fill-opacity="1" fill-rule="nonzero"/></g><path fill="#000000" d="M 52.234375 166.777344 L 52.359375 166.777344 L 52.359375 166.898438 L 52.234375 166.898438 Z M 52.234375 166.777344 " fill-opacity="1" fill-rule="nonzero"/><g clip-path="url(#80bc831304)"><path fill="#000000" d="M 54.417969 167.023438 L 53.980469 167.023438 C 53.953125 167.023438 53.933594 167.011719 53.925781 166.988281 C 53.914062 166.960938 53.917969 166.9375 53.9375 166.917969 L 54.125 166.730469 L 54.214844 166.820312 L 54.132812 166.898438 L 54.417969 166.898438 C 54.460938 166.898438 54.480469 166.878906 54.480469 166.835938 L 54.480469 166.527344 L 54.605469 166.527344 L 54.605469 166.835938 C 54.605469 166.960938 54.542969 167.023438 54.417969 167.023438 Z M 54.417969 167.023438 " fill-opacity="1" fill-rule="nonzero"/><path fill="#000000" d="M 53.9375 167.007812 L 54.027344 166.917969 L 54.214844 167.105469 L 54.125 167.195312 Z M 53.9375 167.007812 " fill-opacity="1" fill-rule="nonzero"/></g><g clip-path="url(#ec9e15ffc2)"><path fill="#000000" d="M 52.296875 165.464844 L 52.171875 165.464844 L 52.171875 165.152344 C 52.171875 165.027344 52.234375 164.964844 52.359375 164.964844 L 52.796875 164.964844 C 52.824219 164.964844 52.84375 164.976562 52.851562 165.003906 C 52.863281 165.027344 52.859375 165.050781 52.839844 165.070312 L 52.652344 165.257812 L 52.5625 165.167969 L 52.644531 165.089844 L 52.359375 165.089844 C 52.316406 165.089844 52.296875 165.109375 52.296875 165.152344 Z M 52.296875 165.464844 " fill-opacity="1" fill-rule="nonzero"/><path fill="#000000" d="M 52.5625 164.882812 L 52.652344 164.792969 L 52.839844 164.980469 L 52.75 165.070312 Z M 52.5625 164.882812 " fill-opacity="1" fill-rule="nonzero"/></g><path fill="#ffde59" d="M 218.355469 194.730469 L 150.507812 126.886719 C 157.730469 110.214844 154.566406 90.125 140.941406 76.496094 C 130.078125 65.632812 115.097656 61.433594 101.023438 63.820312 L 127.636719 90.4375 L 118.746094 118.804688 L 90.378906 127.695312 L 63.765625 101.078125 C 61.375 115.15625 65.578125 130.132812 76.441406 140.996094 C 90.066406 154.625 110.15625 157.789062 126.828125 150.566406 L 194.671875 218.410156 C 201.210938 224.949219 211.816406 224.949219 218.351562 218.410156 L 218.355469 218.410156 C 224.890625 211.871094 224.890625 201.269531 218.355469 194.730469 " fill-opacity="1" fill-rule="nonzero"/><g clip-path="url(#efb056fcba)"><path fill="#ffde59" d="M 108.761719 169.066406 C 75.496094 169.066406 48.523438 142.097656 48.523438 108.828125 C 48.523438 75.554688 75.496094 48.585938 108.761719 48.585938 C 142.03125 48.585938 169.003906 75.554688 169.003906 108.828125 C 169.003906 113.574219 168.398438 118.171875 167.359375 122.601562 L 186.75 141.972656 C 189.105469 136.417969 190.910156 130.570312 192.046875 124.484375 L 217.535156 119.648438 L 217.535156 98.007812 L 192.046875 93.171875 C 189.847656 81.40625 185.257812 70.492188 178.742188 60.984375 L 193.328125 39.566406 L 178.023438 24.261719 L 156.609375 38.847656 C 147.09375 32.332031 136.183594 27.742188 124.421875 25.546875 L 119.585938 0.0585938 L 97.941406 0.0585938 L 93.109375 25.546875 C 81.34375 27.742188 70.433594 32.332031 60.921875 38.847656 L 39.503906 24.261719 L 24.199219 39.566406 L 38.785156 60.984375 C 32.269531 70.492188 27.679688 81.40625 25.480469 93.171875 L -0.0078125 98.007812 L -0.0078125 119.648438 L 25.480469 124.484375 C 27.679688 136.246094 32.269531 147.160156 38.785156 156.671875 L 24.199219 178.089844 L 39.503906 193.390625 L 60.921875 178.808594 C 70.433594 185.324219 81.34375 189.910156 93.105469 192.109375 L 97.941406 217.597656 L 119.585938 217.597656 L 124.421875 192.109375 C 130.515625 190.96875 136.363281 189.164062 141.925781 186.808594 L 122.527344 167.425781 C 118.101562 168.464844 113.507812 169.066406 108.761719 169.066406 " fill-opacity="1" fill-rule="nonzero"/></g></svg>