<svg xmlns="http://www.w3.org/2000/svg" xmlns:xlink="http://www.w3.org/1999/xlink" width="300" zoomAndPan="magnify" viewBox="0 0 224.87999 225" height="300" preserveAspectRatio="xMidYMid meet" version="1.0"><defs><clipPath id="08baf2d0a9"><path d="M 29.179688 135.757812 L 32.175781 135.757812 L 32.175781 141.007812 L 29.179688 141.007812 Z M 29.179688 135.757812 " clip-rule="nonzero"/></clipPath><clipPath id="9637d12d54"><path d="M 81 97 L 184 97 L 184 224.9375 L 81 224.9375 Z M 81 97 " clip-rule="nonzero"/></clipPath><clipPath id="07d6e8c250"><path d="M 172 82 L 224.761719 82 L 224.761719 224.9375 L 172 224.9375 Z M 172 82 " clip-rule="nonzero"/></clipPath><clipPath id="29b28299a5"><path d="M 0 107 L 75 107 L 75 224.9375 L 0 224.9375 Z M 0 107 " clip-rule="nonzero"/></clipPath><clipPath id="507c47f862"><path d="M 33 0.0585938 L 192 0.0585938 L 192 91 L 33 91 Z M 33 0.0585938 " clip-rule="nonzero"/></clipPath></defs><g clip-path="url(#08baf2d0a9)"><path fill="#000000" d="M 32.15625 137.917969 C 32.140625 137.886719 32.105469 137.863281 32.070312 137.863281 L 30.984375 137.863281 L 31.175781 135.886719 C 31.179688 135.835938 31.152344 135.792969 31.109375 135.777344 C 31.066406 135.761719 31.015625 135.777344 30.992188 135.820312 L 29.203125 138.75 C 29.179688 138.785156 29.179688 138.824219 29.199219 138.859375 C 29.214844 138.890625 29.25 138.914062 29.285156 138.914062 L 30.367188 138.914062 L 30.179688 140.890625 C 30.175781 140.941406 30.203125 140.984375 30.246094 141 C 30.257812 141.003906 30.269531 141.007812 30.28125 141.007812 C 30.3125 141.007812 30.34375 140.988281 30.363281 140.957031 L 32.152344 138.027344 C 32.171875 137.992188 32.175781 137.953125 32.15625 137.917969 Z M 32.15625 137.917969 " fill-opacity="1" fill-rule="nonzero"/></g><path fill="#ffde59" d="M 119.9375 187.460938 C 134.414062 187.460938 146.171875 175.699219 146.171875 161.222656 C 146.171875 146.746094 134.414062 134.988281 119.9375 134.988281 C 105.460938 134.988281 93.699219 146.746094 93.699219 161.222656 C 93.699219 175.699219 105.460938 187.460938 119.9375 187.460938 Z M 119.9375 142.484375 C 130.289062 142.484375 138.675781 150.871094 138.675781 161.222656 C 138.675781 171.578125 130.289062 179.964844 119.9375 179.964844 C 109.582031 179.964844 101.195312 171.578125 101.195312 161.222656 C 101.195312 150.871094 109.582031 142.484375 119.9375 142.484375 Z M 119.9375 142.484375 " fill-opacity="1" fill-rule="nonzero"/><g clip-path="url(#9637d12d54)"><path fill="#ffde59" d="M 172.078125 174.808594 L 180.746094 172.75 C 182.433594 172.328125 183.605469 170.828125 183.605469 169.09375 L 183.605469 153.351562 C 183.605469 151.621094 182.433594 150.121094 180.746094 149.699219 L 172.078125 147.636719 C 169.269531 146.980469 166.878906 144.96875 165.800781 142.25 C 164.679688 139.578125 164.910156 136.488281 166.457031 134.003906 L 171.144531 126.320312 C 172.03125 124.820312 171.847656 122.949219 170.582031 121.730469 L 159.429688 110.578125 C 158.210938 109.359375 156.292969 109.125 154.839844 110.015625 L 147.15625 114.703125 C 144.671875 116.203125 141.582031 116.480469 138.910156 115.359375 C 136.238281 114.234375 134.226562 111.890625 133.523438 109.078125 L 131.460938 100.414062 C 131.039062 98.726562 129.539062 97.554688 127.808594 97.554688 L 112.066406 97.554688 C 110.332031 97.554688 108.832031 98.726562 108.410156 100.414062 L 106.347656 109.078125 C 105.695312 111.890625 103.679688 114.28125 100.960938 115.359375 C 98.292969 116.480469 95.199219 116.246094 92.714844 114.703125 L 85.03125 110.015625 L 81.097656 116.386719 L 88.78125 121.074219 C 93.324219 123.835938 98.945312 124.304688 103.820312 122.246094 C 108.738281 120.230469 112.394531 115.921875 113.609375 110.765625 L 115.015625 104.957031 L 124.855469 104.957031 L 126.261719 110.765625 C 127.480469 115.921875 131.179688 120.230469 136.050781 122.246094 C 140.972656 124.257812 146.59375 123.835938 151.089844 121.074219 L 156.246094 117.933594 L 163.226562 124.914062 L 160.085938 130.070312 C 157.324219 134.566406 156.855469 140.234375 158.914062 145.109375 C 160.929688 150.027344 165.238281 153.679688 170.394531 154.898438 L 176.203125 156.304688 L 176.203125 166.144531 L 170.394531 167.546875 C 165.238281 168.765625 160.929688 172.46875 158.914062 177.339844 C 156.902344 182.257812 157.324219 187.882812 160.085938 192.378906 L 163.226562 197.53125 L 156.246094 204.511719 L 151.089844 201.375 C 146.546875 198.609375 140.925781 198.140625 136.050781 200.203125 C 131.132812 202.21875 127.480469 206.527344 126.261719 211.679688 L 124.855469 217.492188 L 115.015625 217.492188 L 113.609375 211.679688 C 112.394531 206.527344 108.691406 202.21875 103.820312 200.203125 C 98.898438 198.1875 93.277344 198.609375 88.78125 201.375 L 81.097656 206.058594 L 85.03125 212.429688 L 92.714844 207.746094 C 95.199219 206.246094 98.292969 205.964844 100.960938 207.089844 C 103.632812 208.214844 105.648438 210.558594 106.347656 213.367188 L 108.410156 222.035156 C 108.832031 223.722656 110.332031 224.894531 112.066406 224.894531 L 127.808594 224.894531 C 129.539062 224.894531 131.039062 223.722656 131.460938 222.035156 L 133.523438 213.367188 C 134.179688 210.558594 136.191406 208.167969 138.910156 207.089844 C 141.582031 205.964844 144.671875 206.199219 147.15625 207.746094 L 154.839844 212.429688 C 156.339844 213.320312 158.210938 213.132812 159.429688 211.867188 L 170.582031 200.71875 C 171.800781 199.5 172.03125 197.578125 171.144531 196.128906 L 166.457031 188.445312 C 164.957031 185.960938 164.675781 182.867188 165.800781 180.199219 C 166.925781 177.527344 169.269531 175.511719 172.078125 174.808594 Z M 172.078125 174.808594 " fill-opacity="1" fill-rule="nonzero"/></g><g clip-path="url(#07d6e8c250)"><path fill="#ffde59" d="M 221.132812 105.003906 L 206.140625 105.003906 L 206.140625 86.265625 C 206.140625 84.203125 204.453125 82.515625 202.390625 82.515625 L 187.398438 82.515625 C 185.339844 82.515625 183.652344 84.203125 183.652344 86.265625 L 183.652344 105.003906 L 172.40625 105.003906 L 172.40625 112.5 L 217.382812 112.5 L 217.382812 127.492188 L 176.15625 127.492188 L 176.15625 134.988281 L 217.382812 134.988281 L 217.382812 149.980469 L 191.148438 149.980469 L 191.148438 157.476562 L 217.382812 157.476562 L 217.382812 172.46875 L 191.148438 172.46875 L 191.148438 179.964844 L 217.382812 179.964844 L 217.382812 194.957031 L 179.902344 194.957031 L 179.902344 202.453125 L 183.652344 202.453125 L 183.652344 221.191406 C 183.652344 223.253906 185.339844 224.941406 187.398438 224.941406 L 202.390625 224.941406 C 204.453125 224.941406 206.140625 223.253906 206.140625 221.191406 L 206.140625 202.453125 L 221.132812 202.453125 C 223.195312 202.453125 224.878906 200.765625 224.878906 198.703125 L 224.878906 108.753906 C 224.878906 106.691406 223.195312 105.003906 221.132812 105.003906 Z M 198.644531 105.003906 L 191.148438 105.003906 L 191.148438 90.011719 L 198.644531 90.011719 Z M 198.644531 217.445312 L 191.148438 217.445312 L 191.148438 202.453125 L 198.644531 202.453125 Z M 198.644531 217.445312 " fill-opacity="1" fill-rule="nonzero"/></g><g clip-path="url(#29b28299a5)"><path fill="#ffde59" d="M 57.296875 107.675781 L 55.140625 114.84375 C 63.667969 117.371094 67.464844 121.121094 67.464844 123.695312 C 67.464844 126.039062 64.511719 128.757812 59.828125 130.863281 C 53.925781 133.488281 46.007812 134.941406 37.480469 134.941406 C 19.160156 134.941406 7.496094 128.289062 7.496094 123.695312 C 7.496094 121.121094 11.289062 117.371094 19.816406 114.84375 L 17.664062 107.675781 C 6.417969 111.046875 0 116.855469 0 123.742188 L 0 207.277344 C 0 212.617188 4.308594 217.351562 12.179688 220.582031 C 18.972656 223.394531 27.96875 224.941406 37.480469 224.941406 C 46.992188 224.941406 55.9375 223.394531 62.777344 220.582031 C 70.648438 217.351562 74.960938 212.617188 74.960938 207.277344 L 74.960938 123.742188 C 74.960938 116.855469 68.542969 111.046875 57.296875 107.675781 Z M 14.992188 213.601562 C 10.449219 211.726562 7.496094 209.199219 7.496094 207.230469 L 7.496094 198.9375 C 9.605469 200.34375 12.132812 201.5625 14.992188 202.640625 Z M 33.730469 217.351562 C 29.75 217.164062 25.953125 216.695312 22.488281 215.898438 L 22.488281 204.746094 C 25.953125 205.449219 29.75 205.917969 33.730469 206.105469 Z M 52.472656 215.898438 C 49.003906 216.648438 45.210938 217.164062 41.226562 217.351562 L 41.226562 206.105469 C 45.210938 205.917969 49.003906 205.449219 52.472656 204.746094 Z M 67.464844 207.277344 C 67.464844 209.246094 64.511719 211.726562 59.96875 213.648438 L 59.96875 202.6875 C 62.824219 201.65625 65.355469 200.390625 67.464844 198.984375 Z M 67.464844 187.460938 C 67.464844 189.800781 64.511719 192.519531 59.828125 194.628906 C 53.925781 197.25 46.007812 198.703125 37.480469 198.703125 C 19.160156 198.703125 7.496094 192.050781 7.496094 187.460938 L 7.496094 135.269531 C 14.242188 139.71875 24.925781 142.484375 37.480469 142.484375 C 50.035156 142.484375 60.71875 139.71875 67.464844 135.269531 Z M 67.464844 187.460938 " fill-opacity="1" fill-rule="nonzero"/></g><path fill="#ffde59" d="M 14.992188 146.230469 L 22.488281 146.230469 L 22.488281 187.460938 L 14.992188 187.460938 Z M 14.992188 146.230469 " fill-opacity="1" fill-rule="nonzero"/><path fill="#ffde59" d="M 33.730469 149.980469 L 41.226562 149.980469 L 41.226562 191.207031 L 33.730469 191.207031 Z M 33.730469 149.980469 " fill-opacity="1" fill-rule="nonzero"/><path fill="#ffde59" d="M 52.472656 146.230469 L 59.96875 146.230469 L 59.96875 187.460938 L 52.472656 187.460938 Z M 52.472656 146.230469 " fill-opacity="1" fill-rule="nonzero"/><path fill="#ffde59" d="M 33.730469 93.761719 C 33.730469 91.699219 35.417969 90.011719 37.480469 90.011719 C 39.542969 90.011719 41.226562 91.699219 41.226562 93.761719 L 41.226562 123.742188 L 48.722656 123.742188 L 48.722656 93.761719 C 48.722656 87.574219 43.664062 82.515625 37.480469 82.515625 C 31.296875 82.515625 26.234375 87.574219 26.234375 93.761719 L 26.234375 123.742188 L 33.730469 123.742188 Z M 33.730469 93.761719 " fill-opacity="1" fill-rule="nonzero"/><g clip-path="url(#507c47f862)"><path fill="#ffde59" d="M 44.976562 75.019531 L 99.320312 75.019531 L 109.441406 88.511719 C 110.144531 89.449219 111.269531 90.011719 112.441406 90.011719 C 113.609375 90.011719 114.734375 89.449219 115.4375 88.511719 L 125.558594 75.019531 L 179.902344 75.019531 C 186.089844 75.019531 191.148438 69.960938 191.148438 63.777344 L 191.148438 11.304688 C 191.148438 5.121094 186.089844 0.0585938 179.902344 0.0585938 L 44.976562 0.0585938 C 38.792969 0.0585938 33.730469 5.121094 33.730469 11.304688 L 33.730469 63.777344 C 33.730469 69.960938 38.792969 75.019531 44.976562 75.019531 Z M 41.226562 11.304688 C 41.226562 9.242188 42.914062 7.554688 44.976562 7.554688 L 179.902344 7.554688 C 181.964844 7.554688 183.652344 9.242188 183.652344 11.304688 L 183.652344 63.777344 C 183.652344 65.835938 181.964844 67.523438 179.902344 67.523438 L 123.683594 67.523438 C 122.511719 67.523438 121.386719 68.085938 120.6875 69.023438 L 112.441406 80.03125 L 104.195312 69.023438 C 103.492188 68.085938 102.367188 67.523438 101.195312 67.523438 L 44.976562 67.523438 C 42.914062 67.523438 41.226562 65.835938 41.226562 63.777344 Z M 41.226562 11.304688 " fill-opacity="1" fill-rule="nonzero"/></g><path fill="#ffde59" d="M 74.960938 60.027344 L 89.953125 60.027344 C 102.367188 60.027344 112.441406 49.957031 112.441406 37.539062 C 112.441406 25.125 102.367188 15.050781 89.953125 15.050781 L 74.960938 15.050781 C 62.542969 15.050781 52.472656 25.125 52.472656 37.539062 C 52.472656 49.957031 62.542969 60.027344 74.960938 60.027344 Z M 104.476562 33.792969 L 97.121094 33.792969 C 96.417969 29.574219 94.496094 25.734375 91.777344 22.6875 C 97.964844 23.4375 102.929688 27.9375 104.476562 33.792969 Z M 97.121094 41.289062 L 104.476562 41.289062 C 102.976562 47.144531 97.964844 51.640625 91.824219 52.390625 C 94.542969 49.347656 96.417969 45.503906 97.121094 41.289062 Z M 74.960938 22.546875 C 83.207031 22.546875 89.953125 29.292969 89.953125 37.539062 C 89.953125 45.785156 83.207031 52.53125 74.960938 52.53125 C 66.714844 52.53125 59.96875 45.785156 59.96875 37.539062 C 59.96875 29.292969 66.714844 22.546875 74.960938 22.546875 Z M 74.960938 22.546875 " fill-opacity="1" fill-rule="nonzero"/><path fill="#ffde59" d="M 142.425781 39.085938 L 147.25 43.910156 C 148.703125 45.363281 151.089844 45.363281 152.542969 43.910156 L 168.660156 27.84375 L 168.660156 37.539062 L 176.15625 37.539062 L 176.15625 18.800781 C 176.15625 16.738281 174.46875 15.050781 172.40625 15.050781 L 153.667969 15.050781 L 153.667969 22.546875 L 163.367188 22.546875 L 149.921875 35.992188 L 145.09375 31.167969 C 143.640625 29.714844 141.253906 29.714844 139.800781 31.167969 L 117.3125 53.65625 L 122.605469 58.949219 Z M 142.425781 39.085938 " fill-opacity="1" fill-rule="nonzero"/></svg>