<?xml version="1.0" encoding="UTF-8"?>
<svg id="Capa_2" data-name="Capa 2" xmlns="http://www.w3.org/2000/svg" viewBox="0 0 543.37 572.76">
  <defs>
    <style>
      .cls-1 {
        fill: #fdfdfd;
      }

      .cls-1, .cls-2, .cls-3, .cls-4 {
        fill-rule: evenodd;
      }

      .cls-2 {
        fill: #8e8e8e;
      }

      .cls-3 {
        fill: #5e5e5e;
      }
    </style>
  </defs>
  <g id="Capa_1-2" data-name="Capa 1">
    <g id="Capa_1-3" data-name="Capa_1">
      <g id="_1478263746384" data-name=" 1478263746384">
        <path class="cls-4" d="M230.01,51.14c-5.2,1.21-10.19,2.64-15.67,3.92-2.97-5.62-22.65-37.84-24.4-38.99-2.71-1.78-26.52,7.86-26.52,10.91s1.34,7.99,2.08,10.97c1.48,5.89,7.71,28.44,7.71,32.77,0,2.9-10.68,8.43-13.71,9.14l-17.13-16.16c-1.76-1.78-2.37-2.07-4.22-3.61-1.57-1.31-2.8-2.74-4.27-4.21-2.95-2.95-5.28-6.04-8.98-8-2.01,1.35-3.8,2.51-5.79,4-2.03,1.53-3.38,2.72-5.49,4.3-3.56,2.66-8.62,5.9-10.91,9.32,1.82,7.81,21.54,37.39,21.54,41.13,0,1.89-3.46,4.44-4.73,5.71-8.35,8.34-6.74,6.51-18.98-.28-27.58-15.31-27.45-20.67-38.05-5.17-10.78,15.78-8.9,10.79,1.89,23.7,3.25,3.88,7.58,6.98,11.08,10.47,1.99,1.98,9.04,9.39,9.88,11.73,1.05,2.92-5.38,11.91-6.79,14.56-6.23,0-27.53-5.94-34.52-7.92-2.3-.65-9.3-2.47-11.83-2.53-1.87,2.79-4.27,8.34-5.69,11.94-8.12,20.49-6.03,13.11,14.18,26.57,3.24,2.16,6.45,4.24,9.99,6.33,2.8,1.65,7.47,5.34,10.24,6.08-.08,3.4-1.05,3.47-1.31,6.53h37.86c2.21-4.18,3.68-9.12,5.3-13.63,3.14-8.76,8.81-17.74,13.19-25.98,4.25-7.98,14.67-20.8,21.17-27.8,1.83-1.96,2.53-3.21,4.57-5.22,13.17-13.02,27.3-25.1,43.68-34.01,17.5-9.51,22.03-11.39,41-17.75,32.43-10.88,76.21-10.73,108.31-1.2l29.13,10.69c2.35,1.04,3.87,2.25,6.3,3.49l19.03,11c7.87,5.25,15.62,10.84,22.49,17.33l19.63,20.2c1.57,1.95,2.97,3.59,4.37,5.42,4.34,5.68,9.11,11.11,12.61,17.42,6.05,10.92,11.28,22.02,15.92,33.7,3.51,8.83,.2,6.34,30.87,6.34,3.49,0,5.71-.66,8.49-1.31,0-7.15,1.54-5.2,7.46-9.52,3.47-2.53,31.71-18.59,31.71-20.51,0-4.06-8.49-23.2-10.45-26.11-7.26,.6-25.4,5.86-33.29,7.83-12.13,3.03-11.72,5.6-16.53-3.05-.81-1.46-3.45-6.45-3.52-7.5-.41-6.63,30.49-28.4,30.49-35.8,0-1.74-8.58-12.61-10.17-14.64-6.18-7.92-5.17-8.61-14.85-3.2-5.98,3.35-28.25,16.71-33.09,17.84-1.82-1.22-11.1-9.71-11.1-11.75,0-2.14,6.55-12.78,8.11-15.39,1.17-1.97,1.72-2.93,2.77-5.06,2.99-6.09,9.27-14.7,10.66-20.67-1.36-2.04-2.93-3.21-5.03-4.76-4.91-3.61-12.23-10.26-17.16-12.87-5.09,2.69-8.75,7.95-12.88,11.93l-21.72,20.06c-2.15-.5-5.61-2.35-7.57-3.53-1.95-1.18-6.23-2.98-6.27-5.63,0-.12,.01-1.12,.04-1.32,.21-1.6,.34-1.62,.64-2.64,.59-2.04,.98-3.46,1.53-5.67,.86-3.46,1.85-7.06,2.74-10.97,.95-4.2,1.64-7.06,2.51-11.2,2.34-11.1,5.76-11.61-2.77-15.83l-12.98-5.3c-2.5-.83-4.51-1.89-7.26-2.54-5.36,3.59-14.94,22.64-19.2,29.76-7.93,13.25-6.66,9.7-21.93,6.14l-1.31-37.86c.08-9.93,.36-9.77-8.39-11.2-25.22-4.11-20.09-5.02-29.24,25.79l-4.25,15.33c-1.41,3.41-10.09,2.06-17.53,2.06-1.18-5.08-11.27-45.05-15.02-45.05-6.34,0-12.21,.63-18.01,1.58-8.6,1.41-9.5,1.35-9.41,10.82l-.64,28.73c.02,4.26-.66,6.45-.66,9.79h0Z"/>
        <path class="cls-4" d="M35.46,403.02c2.97,.79,2.58,1.96,3.74,4.75,2.34,5.63,4.76,12.58,8.01,17.45,9.11,0,22.1-5.2,31.39-7.13,3.46-.72,7.24-2.01,11.04-2.01,1.84,0,7.83,10.31,7.83,12.4,0,3.22-11.98,13.21-14.36,16.32-1.31,1.71-2.25,2.4-3.64,4.19-3.43,4.42-8.2,7.38-11.37,12.13,.55,2.07,2.12,4.04,3.46,5.68l8.18,10.75c5.64,7.5,7.27,3.45,14.68-.55,7.86-4.23,15.86-7.9,23.41-12.49,1.04-.63,1.44-.89,2.5-1.42l2.6-1.32c4.14,2.77,8.3,6.92,11.1,11.1-1.67,3.16-3.08,6.18-4.78,9.58l-10.51,18.86c-1.58,2.67-4.25,7.09-4.94,10.07,1.69,2.53,17.23,15.67,19.59,15.67,4.93,0,9.18-6.44,12.76-9.43l4.37-4.11c1.73-1.74,15.29-15.18,16.16-15.18,2.86,0,4.9,2,7.15,3.3,2.1,1.21,4.55,2.53,6.56,3.88-.19,8.69-9.57,32.99-9.79,43.09,3.52,2.36,7.58,4.29,11.83,5.8l9.41,3.75c.53,.17,.76,.28,1.44,.36,.18,.02,.67,.02,.81,.01,3.05-.06,5.48-6.26,7.08-8.74l11.19-18.84c.97-1.62,1.66-2.81,2.76-4.42,1.21-1.76,2.57-2.52,3.15-4.69,4.32,.1,10.96,2.32,15.02,3.26l1.31,34.6c-.02,9.66-1.85,10,6.9,11.38,6.05,.96,11.93,1.67,18.56,1.67,3.51,0,4.31-7.91,5.14-10.53l7.26-25.38c1.52-6.44,2.79-6.52,9.8-6.52l6.21,.38c2.64,.56,2.88,2.82,3.52,4.9l7.16,25.48c1.43,4.45,1.75,11.67,6.61,11.67,5.62,0,20.82-1.66,24.15-3.26,0-3.71,0-7.41-.02-11.11-.02-4.55,.7-6.34,.68-11.07l.64-22.2c4.87-.41,9.77-3.26,14.36-3.26,1.35,0,22.28,34.43,22.85,36.56,5.75,0,8.54-1.98,13.62-4.01,13.79-5.5,12.95-4.06,9.63-17.28-.93-3.69-1.49-6.98-2.48-10.57-1.7-6.18-4.55-14.49-5.09-21.02,17.29-9.15,9.65-9.97,21.45-.56,3.25,2.59,5.16,4.64,8.09,7.57,13.86,13.86,14.16,17.54,22.22,11.45,1.94-1.47,3.33-2.32,5.32-3.82,3.63-2.74,7.09-5.15,9.51-8.77-1.14-4.89-7.32-14.65-10.07-19.31-3.89-6.57-6.65-12.57-10.17-19.21,.39-.58,.48-.82,1.07-1.54,1.3-1.6-.09,.04,1.26-1.35,11.42-11.81,7.69-8,27.92,2.03,4.61,2.29,15.57,9.12,19.37,10.01l4.68-4.46c16.93-22.49,13-11.78-3.09-32.38-12.54-16.05-20.55-9.55-7.46-29.1,6.08,.14,33.67,8.49,42.43,8.49,1.38,0,2.16-1.4,3.91-2.53,.1-.24,.23-.49,.4-.73,.66-.97,.09-.46,.61-1.42,.28-.51,.44-.81,.53-1.01l-.05-.22c-.53-2.56-.18-.19,.47-1.77l4.83-11.64c1.23-3.19,1.6-5.54-1.64-7.3l-1.98-.89-.35-.18-16.01-10.04c-2.36-1.38-5.5-4.06-8.35-4.06h-47.66c-2.34,0-2.39,3.46-3.25,5.24l-14.44,26.03c-3.12,4.57-1.61,4.6-7.77,12.47-5.23,6.68-10.44,12.07-16.48,18.12l-8.81,8.17c-17.15,15.28-33.38,22.73-54.57,32.26-12.8,5.76-42.94,11.32-57.88,11.32-17.08,0-32.54-1.64-48.48-5.05-7.69-1.65-16.16-3.88-23.25-6.78-16.93-6.92-33.7-16.51-48.02-27.7-5.09-3.98-15.08-12.84-19.2-18.01l-10.69-12.16c-2.46-2.99-4.02-5.68-6.28-8.73-2.1-2.83-3.66-7.05-5.97-9.7l1.59-1.67c.07-.06,.25-.19,.36-.29-2.69-.06-2.96-.42-5.11-4.69l-8-16.62c-.03-.09-.07-.29-.11-.38-.52-1.35-1.16-1.81-3.11-1.81-6.78,0-45.89-.97-49.12,.5-2.4,1.09,1.16-.77-.82,.49l-16.84,10.58c-2.04,1.43-5.33,2.54-7.43,4.32-2.6,2.2-.8,1.48-2.18,4.35h0Z"/>
        <path class="cls-4" d="M285.26,122.03c.27,2.29,4.47,13.46,5.56,16.5,2.33,6.52,.02,11.43-1.38,18.44l-11.43-2.07,7.25-32.87Zm-39.01,3.7c1.45,5.44,8.9,32.13,8.67,35.89l-11.21,2.66c-1.48-2.62-8.73-30.82-9.26-35.69l11.8-2.86Zm64.05,35.71c.67-5.48,6.05-32.86,7.86-36.33l11.72,2.53-7.85,36.18-11.73-2.37Zm-41.25-41.63l8.94,36-11.93,2.53-3.39-14.22-9.14,2.22-1.42-7.2,8.3-2.54-3.2-13.89,11.84-2.91h0Zm41.67,27.05c-1.07,1.54-9.38,10.79-10.86,11.75-.96-1.19-13.33-37.07-13.75-40.23l12.44,2.61,6.54,17.61c2.12-1.42,7.64-7.62,8.95-9.98,.93,1.38,.77-1.26,.67,2.47-.02,.82-2.82,14.1-3.98,15.76ZM118.38,214.35h94.01c1.91,0,5.32-4.53,8.49-7.18l10.71-8.88c12.48-7.37,29.71-14.62,44.78-14.62,14.24,0,17.47-.59,32.28,3.63,6.35,1.81,11.52,3.85,16.91,6.59,9.66,4.9,11.9,8.4,17.02,12.36,13.1,10.13-1.23,8.11,33.02,8.11h70.51c-.59-7.04-13.77-28.71-16.94-33.99-8.01-13.32-20.14-25.82-31.53-36.37l-30.25-21.32c-7.33-4.38-14.97-7.58-23.12-10.83-28.45-11.37-65.41-14.13-96.7-7.89l-26.32,7.62c-10.48,4.02-19.02,7.87-28.82,13.61-2.1,1.23-3.21,2.06-5.14,3.35-2.07,1.39-3.13,1.88-5.11,3.37-10.09,7.59-14.26,10.39-23.48,19.61-11.91,11.91-21.32,23.95-29.67,38.88-2.18,3.9-3.81,7-5.87,11.11-1.51,3.01-4.71,9.65-4.78,12.85h0Z"/>
        <path class="cls-4" d="M254.82,466.47c-3.78-5.56-2.44-2.55-5.23-5.35,1.62-3.01,8.05-8.2,11.1-11.5l7.32,4.16-13.2,12.7h0Zm20.63-28.65c.53,3.61-2.77,5.66-4.55,7.39-1.05,1.02-5.42,6.85-7.33,3.27-1.06-1.99,3.75-5.88,4.86-7.03,2.03-2.08,3.66-5.05,7.02-3.63h0Zm3.95,3.96c-1.17-3.39-1.83-3.94-3.8-6.77,1.27-2.16,5.82-6.7,7.95-7.9,2.63,2.81,1.83,3.09,5.49,4.87-1.33,3.18-1.55,2.56-4.54,5.28-1.66,1.5-2.79,3.34-5.1,4.52h0Zm-41.02-29.58c6.08,.07,12.29,8.4,15.76,11.75,3.14,3.03,12.02,11.18,13.94,14.32l-3.35,3.87c-2.84-1.85-16.86-16.38-21.15-20.71-2.02-2.04-5.63-4.67-5.2-9.23h0Zm64.77,7.67c.96,10.59-9.91,15.02-15.75,8.69-6.16-6.67-1.79-16.41,8.79-15.71-1.58,2.22-8.36,6.89-4.18,11.12,4.32,4.37,8.24-2.79,11.15-4.1h0Zm-63.57,54.31c-1.31-6.13,.66-12.31,7.97-11.08,2.18,.37,4.59,2.53,5.26,4.71,1.25,4.02-.54,5.46-2.15,8.33,6.1,1.21,29.7,2.96,36.15,2.61,2.9-.16,2.71-.6,5.86-.67l4.45-.1c1.58-.28,.6,0,1.44-.46-8.48,.73-8.02-1.15-15.28-8.3-1.98-1.96-3.72-3.41-5.92-5.85l-6.13-6.17c.9-2.25,.8-.4,1.38-3.26l-4.36-2.35c1.3-2.81,6.38-7.69,8.76-9.38,1.55,1.41,1.48,2.22,2.73,4.4,2.66-.38,.71-.72,3.8-1.41,4.76,3.94,9.74,9.6,14.28,14.06,6.44,6.34,9.66,10.01,1.51,18.18,11.93,0,29.85-5.14,38.86-8.68,8.75-3.43,16.47-6.32,24.63-11.28,16.45-9.99,13.89-7.91,29.75-21.18l10.94-10.6c4.76-5.15,6.79-7.5,8.85-8.47,.4-.7,1.04-1.35,1.77-1.89,.42-1.51,1.16-2.53,2.04-3.75,2.7-3.72,1.45-.18,4.13-5.66,.91-1.86,.17-.66,1.2-2.07,3.5-4.78,4.67-7.18,7.24-12.34l3.36-6.43c.74-1.49,.59,.89,.94-2.33-6.24,0-96.53-.42-99.01,.22-2.15,.56-2.69,1.48-6.32,4.12-.39,.28-1.49,1.11-1.5,1.11l-8.71,4.35c-6.49,3.22-17.17,5.62-24.52,6.81l-21.12,.28-18.35-4.45c-.46-.22-.88-.44-1.35-.64l-9.53-4.2c-.41-.24-.81-.5-1.21-.74-14.25-8.44-7.78-6.86-25.12-6.86h-84.22c.06,2.91,2.56,6.98,3.5,8.97l8.97,14.47c1.67,2.56,3.87,4.07,5.82,6.59l24.34,25.93c4.47,3.74,9.04,7.62,13.9,10.91,1.46,.99,2.25,1.32,3.67,2.21,13.84,8.71,22.05,13.11,38.14,18.66,2.97,1.02,6.92,2.32,9.16,3.67h0Z"/>
        <path class="cls-4" d="M1.52,381.47H541.41c2.15,0,1.82-1.13,1.96-7.18-1.46-.34-1.5-.65-3.26-.65H1.52s0,7.83,0,7.83Z"/>
        <path class="cls-1" d="M291.74,471.2c-1.51-4.12-.51-6.45,4.37-6.08,4.02,4.53,1.24,7.94-4.37,6.08Zm6.82,6.33l.77-.08c8.15-8.17,4.93-11.84-1.51-18.18-4.54-4.47-9.52-10.12-14.28-14.06-3.09,.7-1.14,1.03-3.8,1.41-1.25-2.18-1.18-2.99-2.73-4.4-2.38,1.69-7.46,6.57-8.76,9.38l4.36,2.35c-.58,2.87-.48,1.01-1.38,3.26l6.13,6.17c2.2,2.43,3.94,3.89,5.92,5.85,7.25,7.15,6.8,9.03,15.28,8.3h0Z"/>
        <polygon class="cls-1" points="257.22 122.72 260.42 136.61 252.12 139.15 253.54 146.35 262.68 144.13 266.07 158.35 278 155.81 269.06 119.81 257.22 122.72"/>
        <path class="cls-1" d="M299.86,158.61c1.48-.96,9.79-10.21,10.86-11.75,1.16-1.67,3.95-14.95,3.98-15.76,.11-3.73,.27-1.09-.67-2.47-1.31,2.36-6.83,8.55-8.95,9.98l-6.54-17.61-12.44-2.61c.42,3.16,12.8,39.04,13.75,40.23Z"/>
        <path class="cls-1" d="M234.46,128.59c.54,4.87,7.79,33.07,9.26,35.69l11.21-2.66c.22-3.75-7.23-30.45-8.67-35.89l-11.8,2.86Z"/>
        <path class="cls-1" d="M310.31,161.44l11.73,2.37,7.85-36.18-11.72-2.53c-1.81,3.47-7.19,30.85-7.86,36.33Z"/>
        <path class="cls-1" d="M278.01,154.89l11.43,2.07c1.4-7.01,3.7-11.93,1.38-18.44-1.08-3.03-5.28-14.2-5.56-16.5l-7.25,32.87Z"/>
        <path class="cls-1" d="M268.08,438.27c-1.92-3.14-10.8-11.29-13.94-14.32-3.48-3.35-9.69-11.69-15.76-11.75-.43,4.56,3.18,7.19,5.2,9.23,4.3,4.33,18.31,18.86,21.15,20.71l3.35-3.87Z"/>
        <path class="cls-1" d="M303.15,419.87c-2.9,1.31-6.82,8.47-11.15,4.1-4.18-4.22,2.6-8.89,4.18-11.12-10.58-.7-14.95,9.05-8.79,15.71,5.84,6.32,16.71,1.9,15.75-8.69h0Z"/>
        <path class="cls-1" d="M268.01,453.77l-7.32-4.16c-3.05,3.31-9.49,8.5-11.1,11.5,2.79,2.8,1.45-.21,5.23,5.35l13.2-12.7h0Z"/>
        <path class="cls-1" d="M244.57,473.19c-4.11-3.91-.69-7.52,2.63-6.39,3.16,1.08,3.94,7-2.63,6.39Zm-5,.98c2.98,3.08,8.61,4.01,11.09,1.96,1.61-2.87,3.4-4.31,2.15-8.33-.68-2.17-3.08-4.34-5.26-4.71-7.31-1.24-9.28,4.95-7.97,11.08h0Z"/>
        <path class="cls-1" d="M279.4,441.78c2.31-1.18,3.44-3.02,5.1-4.52,3-2.72,3.22-2.11,4.54-5.28-3.66-1.77-2.86-2.06-5.49-4.87-2.13,1.2-6.68,5.74-7.95,7.9,1.97,2.83,2.63,3.38,3.8,6.77h0Z"/>
        <path class="cls-1" d="M275.45,437.82c-3.36-1.42-4.99,1.55-7.02,3.63-1.11,1.15-5.92,5.04-4.86,7.03,1.91,3.58,6.28-2.24,7.33-3.27,1.78-1.74,5.08-3.79,4.55-7.39h0Z"/>
        <path class="cls-4" d="M291.74,471.2c5.6,1.86,8.39-1.54,4.37-6.08-4.87-.37-5.88,1.96-4.37,6.08Z"/>
        <path class="cls-4" d="M244.57,473.19c6.56,.61,5.79-5.31,2.63-6.39-3.32-1.13-6.74,2.48-2.63,6.39Z"/>
        <path class="cls-2" d="M534.89,420.64c.06,.06,.19-.29,.19-.19h0s-.26,.13-.19,.19Z"/>
        <path class="cls-3" d="M431.74,414.12l.19-.19s-.26,.13-.19,.19Z"/>
        <path class="cls-2" d="M307.7,230.02l.19-.19s-.26,.13-.19,.19Z"/>
        <path d="M88.77,220.52c-5.24,4.52-5.31,4.65-5.11,9.31,.2,4.06,.26,4.2,3.93,7.87l3.67,3.67,8,.2,7.93,.2v13.11l2.56,.2c2.36,.2,2.88-.07,6.43-3.54l3.8-3.8v-9.31l-3.8-3.74-3.8-3.74h-16.59l-.2-6.43c-.2-6.29-.2-6.36-1.9-6.56-1.25-.13-2.62,.52-4.92,2.56Z"/>
        <path d="M97.09,221.11c.2,3.67,.26,3.74,5.97,3.67,2.1-.07,3.87,.13,3.87,.39,.07,.33,.2,.79,.26,1.18,.07,.33,.2,.92,.26,1.31,0,.39,2.43,.66,5.64,.66h5.57v-2.16c-.07-1.7-.66-2.62-3.67-5.24l-3.61-3.08h-14.42l.13,3.28h0s0,0,0,0Z"/>
        <path d="M132.96,218.36c-.59,.26-2.69,1.97-4.72,3.87l-3.67,3.41v22.09l3.8,3.74,3.8,3.74h10.16l-.2-3.8c-.2-3.67-.2-3.74-2.29-3.93l-2.16-.2v-21.5l2.16-.2c1.97-.2,2.1-.39,2.29-3.02,.13-1.57-.13-3.28-.59-3.8-.79-.98-6.49-1.25-8.59-.39h0s0,0,0,0Z"/>
        <path d="M143.9,219.27c-.26,.92-.33,2.62-.2,3.87,.2,1.97,.46,2.29,2.49,2.56l2.29,.33v20.98l-2.29,.33q-2.29,.33-2.49,4.06l-.2,3.8h10.16l3.8-3.74,3.8-3.74v-22.42l-3.87-3.41c-3.67-3.21-4.13-3.41-8.52-3.8-4.52-.46-4.59-.39-4.98,1.18h0Z"/>
        <path d="M167.37,218.62c-.26,.46-.66,8.92-.72,18.68l-.26,17.9h13.37l-.2-18.03c-.2-15.21-.39-18.16-1.25-18.68-1.51-.98-10.29-.79-10.95,.13h0Z"/>
        <path d="M202.84,218.55c-.26,.39-.59,7.08-.79,14.82l-.33,14.1,3.87,3.87,3.8,3.87h9.57v-3.54c0-3.54,0-3.61-2.1-3.8l-2.16-.2-.33-14.75-.33-14.75-5.38-.2c-3.54-.13-5.51,.07-5.83,.59h0s0,0,0,0Z"/>
        <path d="M226.31,218.75c-.2,.39-.52,7.08-.66,14.95l-.33,14.29h-1.84c-1.84,0-1.9,.07-1.9,3.61v3.61h9.31l3.54-3.41,3.54-3.41v-14.62c0-11.15-.2-14.75-.79-14.95-1.9-.59-10.49-.66-10.88-.07h0s0,0,0,0Z"/>
        <path d="M252.41,218.29c-.52,.2-2.69,2.03-4.72,4l-3.8,3.67v21.77l3.8,3.74c3.21,3.21,4.13,3.74,6.23,3.74h2.43v-18.36c0-10.69-.26-18.36-.59-18.36s-.98-.13-1.51-.26c-.46-.2-1.31-.13-1.84,.07h0Z"/>
        <path d="M259.09,218.36c-.59,.39-.79,1.7-.66,3.8l.2,3.21,3.8,.2c2.95,.13,3.74,.46,3.87,1.31,0,.59,.13,1.7,.2,2.43,.07,.72,.2,1.84,.26,2.43,.07,1.05,.85,1.18,6.36,1.18h6.29l-.46-3.8c-.39-3.34-.72-4.06-3.8-7.15l-3.41-3.47-5.9-.39c-3.28-.2-6.29-.07-6.75,.26h0Z"/>
        <path d="M284.79,218.81c-.26,.52-.2,2.29,0,3.93,.39,2.49,.72,2.95,1.97,2.95,1.44,0,1.44,.07,1.25,9.64-.13,5.38-.2,10.23-.2,10.82,0,.85-.52,1.18-1.64,1.18-1.57,0-1.64,.2-1.64,3.93v3.93h19.67v-3.93c0-3.74-.07-3.93-1.64-3.93h-1.64v-9.38c0-5.11-.2-9.97-.39-10.75-.33-1.18-.07-1.44,1.51-1.64,1.7-.2,1.84-.39,2.03-3.54,.2-3.28,.13-3.34-1.9-3.8-1.11-.2-5.44-.39-9.57-.39-6.03,0-7.54,.2-7.8,.98h0Z"/>
        <path d="M317.18,218.49c-.59,.39-2.49,2.1-4.26,3.87l-3.15,3.28,.33,11.74,.33,11.74,3.21,3.08,3.21,3.02h9.64v-7.87h-4.59v-21.5l2.36-.39,2.29-.46-.2-3.41-.2-3.41-3.93-.13c-2.16-.13-4.39,.13-5.05,.46h0s0,0,0,0Z"/>
        <path d="M328.65,218.88c-.13,.46-.2,1.9-.07,3.28,.2,2.36,.39,2.56,2.36,2.75l2.1,.2v22.22h-4.59v7.87h9.9l3.61-3.41,3.54-3.47v-22.29l-3.74-3.8c-2.49-2.56-4.2-3.74-5.38-3.8-.92,0-3.02-.07-4.59-.2-1.7-.07-2.95,.2-3.15,.66h0s0,0,0,0Z"/>
        <path d="M352.06,219.34c0,.85,.59,2.1,1.31,2.75,.72,.66,2.23,2.82,3.41,4.79,2.69,4.46,3.15,5.24,10.82,17.96l6.29,10.36h6.42c3.61,0,6.49-.26,6.49-.52,0-.33-2.1-3.93-4.65-8.06-2.56-4.13-5.05-8.19-5.51-9.11-.46-.92-1.64-2.49-2.62-3.54-.98-1.05-2.69-3.54-3.74-5.57-3.47-6.43-5.38-9.57-6.1-10.03-.33-.26-3.21-.52-6.36-.52-5.64,0-5.77,.07-5.77,1.51h0Z"/>
        <path d="M376.84,226.16l-.2,8.39,4.92,8c2.69,4.46,5.11,8.06,5.38,8.06,.66,0,.66-5.31,.07-20.85l-.39-11.93h-9.57l-.2,8.33h0s0,0,0,0Z"/>
        <polygon points="393.36 236.52 393.36 255.2 399.59 255.2 405.82 255.2 405.82 247.66 405.82 240.12 411.72 240.12 417.62 240.12 417.62 236.52 417.62 232.98 411.91 232.78 406.14 232.58 405.95 225.17 405.75 217.83 399.59 217.83 393.36 217.83 393.36 236.52 393.36 236.52"/>
        <polygon points="407.78 221.44 407.78 225.04 411.72 225.04 415.65 225.04 415.65 227.01 415.65 229.04 421.42 228.85 427.12 228.65 427.32 223.21 427.52 217.83 417.62 217.83 407.78 217.83 407.78 221.44"/>
        <path d="M435.97,222.16l-3.54,3.54-.07,4.33-.07,4.26,3.61,3.74,3.67,3.74,8.19,.33,8.19,.33-.07,6.69-.07,6.75h2.69c2.36,0,3.08-.39,6.43-3.74l3.8-3.74v-8.98l-3.74-3.93-3.67-3.87h-16.85v-13.11l-2.43,.07c-2.1,0-3.08,.59-6.1,3.61h0s0,0,0,0Z"/>
        <path d="M445.94,221.9l.2,3.47h4.79c4.79,0,5.11,.2,4.79,2.75-.07,.66,1.44,.85,5.83,.85h5.9v-2.16c0-1.7-.66-2.82-3.15-5.24l-3.15-3.08h-15.41l.2,3.41h0s0,0,0,0Z"/>
        <path d="M351.8,225.5c-.2,1.38-.39,8.59-.39,16.06v13.64h11.15v-7.8c0-8.78,.59-7.21-7.47-19.93l-2.82-4.39-.46,2.43h0s0,0,0,0Z"/>
        <path d="M266.7,244.84c-.13,1.64-.52,2.88-.98,2.88-.46,.07-2.29,.13-4.13,.2l-3.28,.07v7.21h13.51l3.74-3.8c3.34-3.41,3.74-4.06,3.74-6.56v-2.75h-12.39l-.2,2.75h0Z"/>
        <path d="M187.5,245.04c0,1.7-.26,2.29-1.11,2.36-.66,.07-1.64,.2-2.16,.26-.52,.07-1.51,.2-2.1,.26-.98,.07-1.18,.72-1.18,3.67v3.61h17.7v-12.46h-11.15v2.29h0Z"/>
        <path d="M83.85,244.19c-.66,2.43-.26,3.47,2.69,7.08l3.34,3.93h15.67v-6.56l-3.61-.07c-1.97-.07-4-.13-4.39-.2-.46,0-.92-1.05-1.05-2.23l-.2-2.1h-6.23c-3.41,0-6.16,.07-6.23,.13h0s0,0,0,0Z"/>
        <path d="M414.34,245.69c0,1.44-.26,1.64-2.43,1.7-1.38,.07-2.88,.07-3.28,0-.59-.07-.85,1.05-.85,3.87v3.93h19.67v-11.15h-13.11v1.64h0Z"/>
        <path d="M432.04,246.28c0,1.38,4.39,7.74,6.23,9.05,.33,.26,4.13,.52,8.39,.52h7.67v-6.49l-4.39-.2-4.46-.2-.2-2.16-.2-2.1h-6.56c-6.36,0-6.49,0-6.49,1.57h0Z"/>
        <polygon points="0 279.79 0 283.39 271.48 283.26 542.97 283.06 543.1 279.59 543.17 276.18 271.62 276.18 0 276.18 0 279.79 0 279.79"/>
        <path d="M96.37,298.08c0,.13,.85,2.43,1.97,5.05,1.05,2.69,3.21,8.33,4.85,12.52l2.88,7.74-2.03,.07c-4.92,.2-4.59-.13-6.62,6.29-.46,1.51-.39,1.51,5.64,1.51h6.16l.72,1.97,.72,1.97h6.36c4.85,0,6.29-.2,6.03-.85-.2-.39-1.97-5.05-4-10.29-2.03-5.24-4.85-12.33-6.23-15.73-1.38-3.41-2.88-7.21-3.34-8.39l-.79-2.1h-6.16c-3.41,0-6.16,.13-6.16,.26h0Z"/>
        <path d="M130.27,301.68l-3.74,3.93v22.09l3.8,3.74,3.8,3.74h16.06l-.2-3.8-.2-3.74-4.85-.13c-2.69-.13-4.98-.33-5.11-.46-.13-.13-.33-6.69-.39-14.62l-.13-14.29-2.69-.2c-2.43-.2-2.88,.07-6.36,3.74h0Z"/>
        <path d="M141.09,301.55l.2,3.8,4.46,.2c4.2,.2,4.39,.26,4.39,1.77q0,1.64,6.56,1.64c6.49,0,6.56,0,6.56-1.57,0-.92-1.38-3.21-3.34-5.57l-3.34-4h-15.67l.2,3.74h0s0,0,0,0Z"/>
        <polygon points="168.62 316.3 168.82 334.86 175.24 335.05 181.6 335.25 181.6 316.5 181.6 297.81 175.05 297.81 168.49 297.81 168.62 316.3 168.62 316.3"/>
        <path d="M183.04,301.55l.2,3.8,4.59,.33,4.59,.33v10.49l-4.72,.2-4.79,.2v7.15l6.1-.39c7.8-.46,9.9-1.18,13.37-4.39l2.82-2.62v-11.21l-3.74-3.8-3.74-3.8h-14.88l.2,3.74h0s0,0,0,0Z"/>
        <polygon points="213.59 301.49 209.79 305.22 209.79 316.56 209.79 327.91 213.53 331.51 217.2 335.18 222.05 335.18 226.84 335.18 226.84 331.25 226.84 327.32 224.54 327.32 222.25 327.32 222.25 316.5 222.25 305.68 224.54 305.68 226.84 305.68 226.84 301.75 226.84 297.81 222.12 297.81 217.33 297.81 213.6 301.49 213.59 301.49"/>
        <polygon points="228.8 301.75 228.8 305.68 231.1 305.68 233.39 305.68 233.39 316.5 233.39 327.32 231.1 327.32 228.8 327.32 228.8 331.25 228.8 335.18 233.72 335.18 238.64 335.18 242.24 331.64 245.85 328.17 245.85 316.56 245.85 304.96 242.11 301.35 238.31 297.81 233.59 297.81 228.8 297.81 228.8 301.75"/>
        <path d="M248.15,299.26c.59,1.84,7.28,20.32,8.52,23.47,.52,1.25,1.7,4.59,2.69,7.34l1.77,5.11h12.19l-6.36-18.68-6.36-18.68h-6.42c-6.36,0-6.43,0-6.03,1.44h0Z"/>
        <path d="M274.24,300.57c-.39,1.57-1.7,6.03-2.88,9.9l-2.16,7.08,2.56,7.87c1.44,4.26,2.75,7.8,3.02,7.8,.52,0,.85-.85,5.44-13.77,1.97-5.57,4.46-12.59,5.57-15.6,1.11-3.02,2.03-5.57,2.03-5.77,0-.13-2.88-.26-6.43-.26h-6.49l-.66,2.75h0Z"/>
        <path d="M289.78,301.75c0,3.74,.07,3.93,1.64,3.93,1.31,0,1.64,.33,1.64,1.64,0,.92,.07,5.7,.07,10.62v9.05l-1.64,.2c-1.64,.2-1.7,.39-1.7,4.13v3.87h19.67v-3.93c0-3.74-.07-3.93-1.64-3.93h-1.64v-21.63h1.64c1.57,0,1.64-.2,1.64-3.93v-3.93h-19.67v3.93h0Z"/>
        <path d="M327.8,297.95c0,.13,.66,1.84,1.38,3.8,.79,1.97,2.95,7.67,4.85,12.59l3.47,9.05-2.1,.07c-4.85,.2-4.52-.13-6.56,6.29-.46,1.51-.39,1.51,5.64,1.51h6.16l.72,1.97,.72,1.97h6.36c4.85,0,6.29-.2,6.03-.85-.2-.39-1.97-5.05-4-10.29-2.03-5.24-4.85-12.33-6.23-15.73-1.38-3.41-2.88-7.21-3.34-8.39l-.79-2.1h-6.16c-3.41,0-6.16,.07-6.16,.13h0Z"/>
        <polygon points="357.96 316.5 357.96 335.18 364.19 335.18 370.41 335.18 370.41 316.5 370.41 297.81 364.19 297.81 357.96 297.81 357.96 316.5"/>
        <polygon points="393.36 316.5 393.36 335.18 399.59 335.18 405.82 335.18 405.82 327.64 405.82 320.11 411.72 320.11 417.62 320.11 417.62 316.5 417.62 312.96 411.91 312.76 406.14 312.57 405.95 305.16 405.75 297.81 399.59 297.81 393.36 297.81 393.36 316.5 393.36 316.5"/>
        <polygon points="407.78 301.42 407.78 305.03 411.72 305.03 415.65 305.03 415.65 306.99 415.65 309.03 421.42 308.83 427.12 308.63 427.32 303.19 427.52 297.81 417.62 297.81 407.78 297.81 407.78 301.42"/>
        <path d="M435.97,301.49l-3.54,3.54-.07,4.33-.07,4.26,3.61,3.74,3.67,3.74,8.19,.33,8.19,.33-.07,6.69-.07,6.75h2.69c2.36,0,3.08-.39,6.43-3.74l3.8-3.74v-8.98l-3.74-3.93-3.67-3.87h-16.85v-13.11l-2.43,.07c-2.1,0-3.08,.59-6.1,3.61h0s0,0,0,0Z"/>
        <path d="M445.94,301.22l.2,3.47h4.79c4.79,0,5.11,.2,4.79,2.75-.07,.66,1.44,.85,5.83,.85h5.9v-2.16c0-1.7-.66-2.82-3.15-5.24l-3.15-3.08h-15.41l.2,3.41h0s0,0,0,0Z"/>
        <path d="M93.49,303.19c-.52,1.57-1.64,4.46-2.36,6.42-3.93,10.49-9.18,24.85-9.18,25.18,0,.26,2.69,.33,5.97,.26l5.97-.2,3.21-9.51c1.7-5.24,3.15-10.1,3.21-10.75,0-1.64-4.65-14.16-5.31-14.16-.26,0-.92,1.25-1.51,2.75h0Z"/>
        <path d="M324.92,303.19c-.52,1.57-1.64,4.46-2.36,6.42-3.93,10.49-9.18,24.85-9.18,25.18,0,.26,2.69,.33,5.97,.26l5.97-.2,3.21-9.51c1.7-5.24,3.15-10.1,3.21-10.75,0-1.64-4.65-14.16-5.31-14.16-.26,0-.92,1.25-1.51,2.75h0Z"/>
        <path d="M146,314.6c-.26,.26-.46,2.03-.46,4v3.47h5.9v13.11h11.87l-.2-10.36-.2-10.29-8.26-.2c-4.52-.07-8.39,.07-8.65,.26h0Z"/>
        <path d="M197.66,323.38c-.2,.33-2.62,.66-5.31,.66s-4.85,.13-4.85,.26c0,.2,1.18,2.69,2.62,5.57l2.69,5.31h6.56c3.61,0,6.49-.26,6.36-.59-.07-.33-1.51-3.15-3.15-6.23-2.75-5.31-4-6.49-4.92-4.98Z"/>
        <path d="M378.28,324.96c0,2.36-1.25,3.15-4.26,2.62-1.44-.26-1.51-.07-1.77,3.67l-.2,3.93h17.37v-12.46h-11.15v2.23Z"/>
        <path d="M414.34,325.68c0,1.44-.26,1.64-2.43,1.7-1.38,.07-2.88,.07-3.28,0-.59-.07-.85,1.05-.85,3.87v3.93h19.67v-11.15h-13.11v1.64h0Z"/>
        <path d="M432.04,325.61c0,1.38,4.39,7.74,6.23,9.05,.33,.26,4.13,.52,8.39,.52h7.67v-6.49l-4.39-.2-4.46-.2-.2-2.16-.2-2.1h-6.56c-6.36,0-6.49,0-6.49,1.57h0Z"/>
        <path d="M291.28,468.01c-1.25,1.97-.72,3.34,1.84,4.65,2.1,1.05,4.13-.26,4.39-2.82,.46-3.54-4.2-4.92-6.23-1.84h0Z"/>
        <path d="M243.23,468.93c-.72,.72-1.31,1.7-1.31,2.16,0,1.57,2.03,3.74,3.61,3.74s3.61-2.16,3.61-3.74c0-1.18-2.43-3.47-3.61-3.47-.52,0-1.57,.59-2.29,1.31h0Z"/>
      </g>
    </g>
  </g>
</svg>